<?xml version="1.0" encoding="utf-8"?>
<!-- Generator: Adobe Illustrator 27.2.0, SVG Export Plug-In . SVG Version: 6.00 Build 0)  -->
<svg version="1.1" id="Layer_1" xmlns="http://www.w3.org/2000/svg" xmlns:xlink="http://www.w3.org/1999/xlink" x="0px" y="0px"
	 width="285.3px" height="282.8px" viewBox="0 0 285.3 282.8" style="enable-background:new 0 0 285.3 282.8;" xml:space="preserve"
	>
<style type="text/css">
	.st0{fill:#C8962C;}
	.st1{fill:#FEC114;}
	.st2{fill:#D3A12A;}
	.st3{fill:#36474F;}
</style>
<image style="display:none;overflow:visible;" width="96" height="96" xlink:href="../../icons8-cymbals-96.png"  transform="matrix(3.5833 0 0 3.5833 -31.1223 -34.0266)">
</image>
<g>
	<circle class="st0" cx="169.2" cy="166.7" r="116.1"/>
	<circle class="st1" cx="116.1" cy="116.1" r="116.1"/>
	<circle class="st2" cx="116.1" cy="116.1" r="99"/>
	<circle class="st1" cx="116.1" cy="116.1" r="95.8"/>
	<circle class="st2" cx="116.1" cy="115.6" r="73.4"/>
	<circle class="st1" cx="116.1" cy="115.6" r="71"/>
	<circle class="st2" cx="117.1" cy="115.1" r="47"/>
	<circle class="st1" cx="116.6" cy="115.6" r="44.9"/>
	<circle class="st2" cx="116.6" cy="116.1" r="36.2"/>
	<path class="st3" d="M108.3,116.7l-7.5,70.1c-0.5,4.8,3.2,9,8.1,9h15.4c4.8,0,8.6-4.2,8.1-9l-7.5-70.1c-0.4-4.1-3.9-7.2-8.1-7.2
		h-0.5C112.2,109.4,108.7,112.6,108.3,116.7z"/>
</g>
</svg>
