<?xml version="1.0" encoding="utf-8"?>
<!-- Generator: Adobe Illustrator 27.2.0, SVG Export Plug-In . SVG Version: 6.00 Build 0)  -->
<svg version="1.1" id="Layer_1" xmlns="http://www.w3.org/2000/svg" xmlns:xlink="http://www.w3.org/1999/xlink" x="0px" y="0px"
	 width="114.5px" height="301.1px" viewBox="0 0 114.5 301.1" style="enable-background:new 0 0 114.5 301.1;" xml:space="preserve"
	>
<style type="text/css">
	.st0{fill:#EF4637;}
	.st1{fill:#F7DFE0;}
	.st2{fill:#5E4137;}
	.st3{fill:#253339;}
</style>
<image style="display:none;overflow:visible;" width="96" height="96" xlink:href="../../icons8-rock-music-96.png"  transform="matrix(1 0 0 1 -63.048 45.9809)">
</image>
<g>
	<path class="st0" d="M49.1,160c0,0-12.7,20.2-19.7,5.7s-6.1-23.1-6.1-23.1s-0.8-9.5-9.3-1.7c-8.5,7.8-15.7,16.5,0.6,51.3
		c0,0,9.6,17.2,0.4,35.9c0,0-27.6,34.4-7.9,56.7c0,0,8.1,14.2,37.3,16.1l41.4,0.2c0,0,48.8-5.7,19.3-65.4c0,0-10.3-15.7-6.2-32.7
		c0,0,12.5-26.5,4.7-38.4c0,0-8.4-13.2-12.9,2.3c0,0-6.9,27.8-24.8,10.8l-3.6-19.1L49.1,160z"/>
	<path class="st1" d="M48.6,172.5c0,0-21.1,0.1-17,41.7c0,0-1.6,24.3,20,39l21.6,4.3c0,0,7.5-19.1,18.3-16c0,0,11.9-2.3,3-12.9
		c0,0-12.1-10.9-2.4-27.4c0,0,10.1-21.1,6.2-32.1c0,0-15,38.3-38.3,11.6L48.6,172.5z"/>
	<path class="st2" d="M44.8,202.4l5.1-159.1l9.8-36.2c0,0,5.8-12.3,12.6-4.4c0,0,2,5.1-2.8,9.9c0,0-6.7,0.7,4.5,25.5L62.1,51.7
		l7.8,151.6L44.8,202.4z"/>
	<path class="st2" d="M65.7,17.7L65.7,17.7c-0.5,1.9-2.5,3.1-4.4,2.5l-11.5-3.1c-1.9-0.5-3.1-2.5-2.5-4.4l0,0
		c0.5-1.9,2.5-3.1,4.4-2.5l11.5,3.1C65.1,13.8,66.2,15.8,65.7,17.7z"/>
	<path class="st2" d="M63,28.1L63,28.1c-0.5,1.9-2.5,3.1-4.4,2.5l-11.5-3.1c-1.9-0.5-3.1-2.5-2.5-4.4l0,0c0.5-1.9,2.5-3.1,4.4-2.5
		l11.5,3.1C62.4,24.2,63.5,26.2,63,28.1z"/>
	<path class="st2" d="M60.1,38.8L60.1,38.8c-0.5,1.9-2.5,3.1-4.4,2.5l-11.5-3.1c-1.9-0.5-3.1-2.5-2.5-4.4l0,0
		c0.5-1.9,2.5-3.1,4.4-2.5l11.5,3.1C59.5,34.9,60.6,36.9,60.1,38.8z"/>
	<path class="st3" d="M70.7,233.9H44.1c-3.4,0-6.1-2.7-6.1-6.1v-1.4c0-3.4,2.7-6.1,6.1-6.1h26.7c3.4,0,6.1,2.7,6.1,6.1v1.4
		C76.8,231.1,74.1,233.9,70.7,233.9z"/>
	<path class="st3" d="M70.3,266.8H44.6c-3.6,0-6.6-2.9-6.6-6.6v-9.6c0-3.6,2.9-6.6,6.6-6.6h25.7c3.6,0,6.6,2.9,6.6,6.6l0,9.6
		C76.8,263.8,73.9,266.8,70.3,266.8z"/>
</g>
</svg>
