<?xml version="1.0" encoding="utf-8"?>
<!-- Generator: Adobe Illustrator 27.2.0, SVG Export Plug-In . SVG Version: 6.00 Build 0)  -->
<svg version="1.1" id="Layer_1" xmlns="http://www.w3.org/2000/svg" xmlns:xlink="http://www.w3.org/1999/xlink" x="0px" y="0px"
	 width="43px" height="363.5px" viewBox="0 0 43 363.5" style="enable-background:new 0 0 43 363.5;" xml:space="preserve">
<style type="text/css">
	.st0{fill:#FECB39;}
	.st1{fill:#E38F30;}
	.st2{fill:#FFCC3F;}
	.st3{fill:#343433;}
</style>
<g>
	<path class="st0" d="M25.9,0h-8.8C7.7,0,0,7.7,0,17.1v197.6h2.2V27h39.2v187.8H43V17.1C43,7.7,35.3,0,25.9,0z"/>
	<path class="st0" d="M41.4,341.1H2.2V236.4H0v110c0,9.4,7.7,17.1,17.1,17.1h8.8c9.4,0,17.1-7.7,17.1-17.1v-110h-1.6V341.1z"/>
	<path class="st1" d="M41.4,341.1V236.4H2.2v104.7H41.4z M29.8,282.6c4.6,4.6,4.6,12,0,16.6c-4.6,4.6-12,4.6-16.6,0
		c-4.6-4.6-4.6-12,0-16.6C17.8,278,25.2,278,29.8,282.6z"/>
	<path class="st1" d="M41.4,27H2.2v187.8h39.2V27z M13.5,81.9c4.6-4.6,12-4.6,16.6,0c4.6,4.6,4.6,12,0,16.6c-4.6,4.6-12,4.6-16.6,0
		C8.9,93.9,8.9,86.5,13.5,81.9z M13.2,118.7c4.6-4.6,12-4.6,16.6,0c4.6,4.6,4.6,12,0,16.6c-4.6,4.6-12,4.6-16.6,0
		C8.6,130.7,8.6,123.3,13.2,118.7z M30.1,175.8c-4.6,4.6-12,4.6-16.6,0c-4.6-4.6-4.6-12,0-16.6c4.6-4.6,12-4.6,16.6,0
		C34.7,163.7,34.7,171.2,30.1,175.8z"/>
	<polygon class="st2" points="2.2,214.7 0,214.7 0,236.4 2.2,236.4 41.4,236.4 43,236.4 43,214.7 41.4,214.7 	"/>
	<circle class="st3" cx="21.5" cy="290.9" r="11.7"/>
	<circle class="st3" cx="21.8" cy="167.5" r="11.7"/>
	<circle class="st3" cx="21.5" cy="127" r="11.7"/>
	<circle class="st3" cx="21.8" cy="90.2" r="11.7"/>
</g>
</svg>
