<?xml version="1.0" encoding="utf-8"?>
<!-- Generator: Adobe Illustrator 27.2.0, SVG Export Plug-In . SVG Version: 6.00 Build 0)  -->
<svg version="1.1" id="Layer_1" xmlns="http://www.w3.org/2000/svg" xmlns:xlink="http://www.w3.org/1999/xlink" x="0px" y="0px"
	 width="173.6px" height="462.1px" viewBox="0 0 173.6 462.1" style="enable-background:new 0 0 173.6 462.1;" xml:space="preserve"
	>
<style type="text/css">
	.st0{fill:#7C3F1D;}
	.st1{fill:#CE9550;}
	.st2{fill:#FBB040;}
	.st3{fill:#474445;}
	.st4{fill:#878686;}
	.st5{fill:#FFDB94;}
	.st6{fill:#B55E27;}
	.st7{fill:#E08A4F;}
	.st8{fill:#FFFFFF;}
</style>
<g>
	<path class="st0" d="M45,23.3L45,23.3c0-3.8,3.1-7,7-7h58.9c3.8,0,7,3.1,7,7v0c0,3.8-3.1,7-7,7H51.9C48.1,30.3,45,27.2,45,23.3z"/>
	<path class="st0" d="M45,41.7L45,41.7c0-3.8,3.1-7,7-7h58.9c3.8,0,7,3.1,7,7v0c0,3.8-3.1,7-7,7H51.9C48.1,48.7,45,45.6,45,41.7z"/>
	<path class="st1" d="M162.9,362.4L162.9,362.4C162.9,362.4,162.9,362.4,162.9,362.4c-2.9-3.8-6.3-7.2-10.2-10.1
		c-6.5-8.5-12.9-22.1-8.8-40.4c9.5-9.5,15.4-22.7,15.4-37.2v0c0-29-23.5-52.6-52.6-52.6H80.2c-29,0-52.6,23.5-52.6,52.6v0
		c0,14.5,5.9,27.7,15.4,37.2c0,0,6.4,20.3-11.7,42.7c-2.7,2.3-5.1,5-7.3,7.8c0,0,0,0,0,0h0c-6.7,8.8-10.7,19.8-10.7,31.8v14.3
		c0,29,23.5,52.6,52.6,52.6H121c29,0,52.6-23.5,52.6-52.6v-14.3C173.6,382.3,169.6,371.3,162.9,362.4z"/>
	<path class="st2" d="M149.6,363.4L149.6,363.4C149.6,363.4,149.6,363.4,149.6,363.4c-2.9-3.8-6.3-7.2-10.2-10.1
		c-6.5-8.5-12.9-22.1-8.8-40.4c9.5-9.5,15.4-22.7,15.4-37.2v0c0-29-23.5-52.6-52.6-52.6H66.9c-29,0-52.6,23.5-52.6,52.6v0
		c0,14.5,5.9,27.7,15.4,37.2c0,0,6.4,20.3-11.7,42.7c-2.7,2.3-5.1,5-7.3,7.8c0,0,0,0,0,0h0C4,372.3,0,383.3,0,395.2v14.3
		c0,29,23.5,52.6,52.6,52.6h55.1c29,0,52.6-23.5,52.6-52.6v-14.3C160.3,383.3,156.3,372.3,149.6,363.4z"/>
	<g>
		<path class="st3" d="M90.7,307.1c1.7,3.3,2.7,7,2.7,11c0,13-10.5,23.5-23.5,23.5c-3.8,0-7.4-0.9-10.5-2.5
			c3.9,7.4,11.8,12.5,20.8,12.5c13,0,23.5-10.5,23.5-23.5C103.7,318.9,98.4,311,90.7,307.1z"/>
		<path class="st4" d="M93.4,318.1c0-4-1-7.7-2.7-11c-3.2-1.6-6.7-2.5-10.5-2.5c-13,0-23.5,10.5-23.5,23.5c0,4,1,7.7,2.7,11
			c3.2,1.6,6.7,2.5,10.5,2.5C82.9,341.6,93.4,331.1,93.4,318.1z"/>
	</g>
	<path class="st5" d="M106.2,399.8H54.1c-4,0-7.3-3.3-7.3-7.3l0,0c0-4,3.3-7.3,7.3-7.3h52.1c4,0,7.3,3.3,7.3,7.3l0,0
		C113.5,396.6,110.2,399.8,106.2,399.8z"/>
	<path class="st5" d="M106.2,422.3H54.1c-4,0-7.3-3.3-7.3-7.3l0,0c0-4,3.3-7.3,7.3-7.3h52.1c4,0,7.3,3.3,7.3,7.3l0,0
		C113.5,419,110.2,422.3,106.2,422.3z"/>
	<g>
		<rect x="77.6" y="63.8" class="st6" width="22.1" height="199.7"/>
		<rect x="63.3" y="63.8" class="st7" width="14.3" height="199.7"/>
	</g>
	<path class="st0" d="M98.4,101.6h-34c-4,0-7.3-3.3-7.3-7.3v0c0-4,3.3-7.3,7.3-7.3h34c4,0,7.3,3.3,7.3,7.3v0
		C105.7,98.4,102.4,101.6,98.4,101.6z"/>
	<path class="st0" d="M98.4,124.1h-34c-4,0-7.3-3.3-7.3-7.3v0c0-4,3.3-7.3,7.3-7.3h34c4,0,7.3,3.3,7.3,7.3v0
		C105.7,120.8,102.4,124.1,98.4,124.1z"/>
	<path class="st0" d="M98.4,146.2h-34c-4,0-7.3-3.3-7.3-7.3v0c0-4,3.3-7.3,7.3-7.3h34c4,0,7.3,3.3,7.3,7.3v0
		C105.7,143,102.4,146.2,98.4,146.2z"/>
	<path class="st0" d="M98.4,168.7h-34c-4,0-7.3-3.3-7.3-7.3v0c0-4,3.3-7.3,7.3-7.3h34c4,0,7.3,3.3,7.3,7.3v0
		C105.7,165.4,102.4,168.7,98.4,168.7z"/>
	<path class="st0" d="M98.4,191.2h-34c-4,0-7.3-3.3-7.3-7.3v0c0-4,3.3-7.3,7.3-7.3h34c4,0,7.3,3.3,7.3,7.3v0
		C105.7,187.9,102.4,191.2,98.4,191.2z"/>
	<path class="st0" d="M98.4,213.7h-34c-4,0-7.3-3.3-7.3-7.3v0c0-4,3.3-7.3,7.3-7.3h34c4,0,7.3,3.3,7.3,7.3v0
		C105.7,210.4,102.4,213.7,98.4,213.7z"/>
	<path class="st0" d="M98.4,236.1h-34c-4,0-7.3-3.3-7.3-7.3v0c0-4,3.3-7.3,7.3-7.3h34c4,0,7.3,3.3,7.3,7.3v0
		C105.7,232.9,102.4,236.1,98.4,236.1z"/>
	<path class="st2" d="M95.2,67.4H67.6c-6.1,0-11-4.9-11-11V11c0-6.1,4.9-11,11-11h27.6c6.1,0,11,4.9,11,11v45.4
		C106.2,62.5,101.3,67.4,95.2,67.4z"/>
	<path class="st8" d="M73.2,52.9L73.2,52.9c-2.2,0-4-1.8-4-4V16.5c0-2.2,1.8-4,4-4h0c2.2,0,4,1.8,4,4v32.4
		C77.1,51.1,75.3,52.9,73.2,52.9z"/>
	<path class="st8" d="M90.2,52.9L90.2,52.9c-2.2,0-4-1.8-4-4V16.5c0-2.2,1.8-4,4-4h0c2.2,0,4,1.8,4,4v32.4
		C94.1,51.1,92.3,52.9,90.2,52.9z"/>
</g>
</svg>
