<?xml version="1.0" encoding="utf-8"?>
<!-- Generator: Adobe Illustrator 27.2.0, SVG Export Plug-In . SVG Version: 6.00 Build 0)  -->
<svg version="1.1" id="Layer_1" xmlns="http://www.w3.org/2000/svg" xmlns:xlink="http://www.w3.org/1999/xlink" x="0px" y="0px"
	 width="134.3px" height="309.2px" viewBox="0 0 134.3 309.2" style="enable-background:new 0 0 134.3 309.2;" xml:space="preserve"
	>
<style type="text/css">
	.st0{fill:#D3DDE6;}
	.st1{fill:#536883;}
	.st2{fill:#325068;}
	.st3{fill:#6681C0;}
	.st4{fill:#E46578;}
	.st5{fill:#4E65AC;}
	.st6{fill:#F8FCFF;}
</style>
<g>
	<circle class="st0" cx="67.1" cy="67.1" r="67.1"/>
	<g>
		<path class="st1" d="M88.9,160.1l-44,0.9c-7.2,0.1-12.9,6.3-12.4,13.6l7.7,104.2L92,280l9.7-106.1
			C102.4,166.4,96.4,160,88.9,160.1z"/>
		<path class="st2" d="M41.6,296.1c0.5,6.3,5.5,11.3,11.9,11.7l23.7,1.4c6.8,0.4,12.7-4.7,13.3-11.5L92,280l-51.8-1.3L41.6,296.1z"
			/>
	</g>
	<path class="st3" d="M100.9,176.4H33.4c-7.9,0-14.4-6.4-14.4-14.4v-31c0-7.9,6.4-14.4,14.4-14.4h67.6c7.9,0,14.4,6.4,14.4,14.4v31
		C115.3,169.9,108.9,176.4,100.9,176.4z"/>
	<path class="st4" d="M67.1,219L67.1,219c-4.6,0-8.3-3.7-8.3-8.3v-14.1c0-4.6,3.7-8.3,8.3-8.3h0c4.6,0,8.3,3.7,8.3,8.3v14.1
		C75.4,215.3,71.7,219,67.1,219z"/>
	<path class="st5" d="M91.6,143.4H41.9c-3.1,0-5.6-2.5-5.6-5.6v-2.7c0-3.1,2.5-5.6,5.6-5.6h49.7c3.1,0,5.6,2.5,5.6,5.6v2.7
		C97.1,140.9,94.6,143.4,91.6,143.4z"/>
	<path class="st5" d="M92,164.6H42.3c-3.1,0-5.6-2.5-5.6-5.6v-2.7c0-3.1,2.5-5.6,5.6-5.6H92c3.1,0,5.6,2.5,5.6,5.6v2.7
		C97.5,162.1,95,164.6,92,164.6z"/>
	<circle class="st6" cx="40.3" cy="28.1" r="13.2"/>
	<circle class="st6" cx="64.8" cy="14.9" r="8"/>
</g>
</svg>
