<?xml version="1.0" encoding="utf-8"?>
<!-- Generator: Adobe Illustrator 27.2.0, SVG Export Plug-In . SVG Version: 6.00 Build 0)  -->
<svg version="1.1" id="Layer_1" xmlns="http://www.w3.org/2000/svg" xmlns:xlink="http://www.w3.org/1999/xlink" x="0px" y="0px"
	 width="360.9px" height="318.4px" viewBox="0 0 360.9 318.4" style="enable-background:new 0 0 360.9 318.4;" xml:space="preserve"
	>
<style type="text/css">
	.st0{fill:#EE4F4B;}
	.st1{fill:#FFFFFF;}
</style>
<image style="display:none;overflow:visible;" width="53" height="53" xlink:href="../../icons8-piano-53.png"  transform="matrix(7.0943 0 0 7.0943 -7.5532 -29.0212)">
</image>
<g>
	<path class="st0" d="M321.7,134.8h-70.9c-31,0-37.8-16.4-39.1-26.6v-7.9C211.7,44.9,166.8,0,111.4,0h-11.1C44.9,0,0,44.9,0,100.3
		v73.6c0,0,0,0,0,0v105.4c0,21.6,17.5,39.1,39.1,39.1h282.6c21.6,0,39.1-17.5,39.1-39.1V173.9C360.9,152.3,343.3,134.8,321.7,134.8z
		"/>
	<path class="st1" d="M310,296.2H49.6c-16.2,0-29.4-13.1-29.4-29.4v-82.7c0-16.2,13.1-29.4,29.4-29.4H310
		c16.2,0,29.4,13.1,29.4,29.4v82.7C339.4,283,326.3,296.2,310,296.2z"/>
	<path d="M80.8,154.7H53.7c-0.1,0-0.3,0.1-0.3,0.3v87.8c0,2.7,2.2,4.9,4.9,4.9h4.6v42.6h8.2v-42.6h4.6c3,0,5.4-2.4,5.4-5.4V155
		C81,154.8,80.9,154.7,80.8,154.7z"/>
	<path d="M137.6,154.7h-27.1c-0.1,0-0.3,0.1-0.3,0.3v87.8c0,2.7,2.2,4.9,4.9,4.9h4.6v42.6h8.2v-42.6h4.6c3,0,5.4-2.4,5.4-5.4V155
		C137.9,154.8,137.7,154.7,137.6,154.7z"/>
	<path d="M194.4,154.7h-27.1c-0.1,0-0.3,0.1-0.3,0.3v87.8c0,2.7,2.2,4.9,4.9,4.9h4.6v42.6h8.2v-42.6h4.6c3,0,5.4-2.4,5.4-5.4V155
		C194.7,154.8,194.6,154.7,194.4,154.7z"/>
	<path d="M251.3,154.7h-27.1c-0.1,0-0.3,0.1-0.3,0.3v87.8c0,2.7,2.2,4.9,4.9,4.9h4.6v42.6h8.2v-42.6h4.6c3,0,5.4-2.4,5.4-5.4V155
		C251.5,154.8,251.4,154.7,251.3,154.7z"/>
	<path d="M308.1,154.7H281c-0.1,0-0.3,0.1-0.3,0.3v87.8c0,2.7,2.2,4.9,4.9,4.9h4.6v42.6h8.2v-42.6h4.6c3,0,5.4-2.4,5.4-5.4V155
		C308.4,154.8,308.2,154.7,308.1,154.7z"/>
</g>
</svg>
