<?xml version="1.0" encoding="utf-8"?>
<!-- Generator: Adobe Illustrator 27.2.0, SVG Export Plug-In . SVG Version: 6.00 Build 0)  -->
<svg version="1.1" id="Layer_1" xmlns="http://www.w3.org/2000/svg" xmlns:xlink="http://www.w3.org/1999/xlink" x="0px" y="0px"
	 width="312.5px" height="303.3px" viewBox="0 0 312.5 303.3" style="enable-background:new 0 0 312.5 303.3;" xml:space="preserve"
	>
<style type="text/css">
	.st0{fill:#ACB4BE;}
	.st1{fill:#2B95D2;}
	.st2{fill:#73CFEC;}
	.st3{fill:#ED6A48;}
</style>
<g>
	<path class="st0" d="M73.8,275.4L73.8,275.4c-3.5-2-4.8-6.6-2.7-10.1L211.2,22.5c2-3.5,6.6-4.8,10.1-2.7l0,0
		c3.5,2,4.8,6.6,2.7,10.1L83.9,272.7C81.9,276.2,77.3,277.4,73.8,275.4z"/>
	<path class="st0" d="M0,147.6L0,147.6c0-4.1,3.3-7.4,7.4-7.4h280.3c4.1,0,7.4,3.3,7.4,7.4v0c0,4.1-3.3,7.4-7.4,7.4L7.4,155
		C3.3,155,0,151.7,0,147.6z"/>
	<path class="st0" d="M73.8,19.8L73.8,19.8c3.5-2,8.1-0.8,10.1,2.7l140.2,242.8c2,3.5,0.8,8.1-2.7,10.1h0c-3.5,2-8.1,0.8-10.1-2.7
		L71.1,29.9C69,26.3,70.2,21.8,73.8,19.8z"/>
	<path class="st0" d="M19.8,221.4L19.8,221.4c-2-3.5-0.8-8.1,2.7-10.1L265.3,71.1c3.5-2,8.1-0.8,10.1,2.7v0c2,3.5,0.8,8.1-2.7,10.1
		L29.9,224.1C26.3,226.1,21.8,224.9,19.8,221.4z"/>
	<path class="st0" d="M19.8,73.8L19.8,73.8c2-3.5,6.6-4.8,10.1-2.7l242.8,140.2c3.5,2,4.8,6.6,2.7,10.1v0c-2,3.5-6.6,4.8-10.1,2.7
		L22.5,83.9C18.9,81.9,17.7,77.3,19.8,73.8z"/>
	<path class="st0" d="M147.6,295.1L147.6,295.1c-4.1,0-7.4-3.3-7.4-7.4V7.4c0-4.1,3.3-7.4,7.4-7.4h0c4.1,0,7.4,3.3,7.4,7.4v280.3
		C155,291.8,151.7,295.1,147.6,295.1z"/>
	<circle class="st1" cx="147.6" cy="147.7" r="132.3"/>
	<circle class="st2" cx="147.6" cy="147.7" r="119.9"/>
	<path class="st3" d="M300.2,240.1l-126.9-57.6c-4.4-2-6.3-7.1-4.3-11.5l0,0c2-4.4,7.1-6.3,11.5-4.3l126.9,57.6
		c4.4,2,6.3,7.1,4.3,11.5v0C309.8,240.1,304.6,242.1,300.2,240.1z"/>
	<path class="st3" d="M240.3,301l-101.8-95.3c-3.5-3.3-3.7-8.8-0.4-12.3v0c3.3-3.5,8.8-3.7,12.3-0.4l101.8,95.3
		c3.5,3.3,3.7,8.8,0.4,12.3h0C249.3,304.1,243.8,304.3,240.3,301z"/>
</g>
</svg>
